name Walk3_EMG.mot
datacolumns 17
datarows 27
range 3.69100000 3.71700000
endheader
                time	            vasmed_r	            vaslat_r	            recfem_r	               gra_r	               sar_r	            tibant_r	           perlong_r	            addmag_r	           semimem_r	          bicfemlh_r	            gasmed_r	            gaslat_r	               sol_r	               tfl_r	              gmed_r	              gmax_r	
          3.69100000	          0.01266846	          0.09685701	          0.16172030	          0.75913847	          0.05756318	          0.18407204	          0.13646098	          0.50932530	          0.33472072	          0.12864098	          0.02756001	          0.21972513	          0.01150540	          0.30386951	          0.16916710	          0.25942771	
          3.69200000	          0.01467614	          0.09471695	          0.16073615	          0.74690192	          0.05726010	          0.18723879	          0.12904527	          0.50509557	          0.32714012	          0.12850635	          0.02547113	          0.21447336	          0.01092936	          0.30376938	          0.16731602	          0.25891231	
          3.69300000	          0.01672331	          0.09274975	          0.15963835	          0.73364972	          0.05715336	          0.19051518	          0.12184702	          0.50037544	          0.31930161	          0.12824197	          0.02380543	          0.20929892	          0.01051432	          0.30358319	          0.16538340	          0.25833140	
          3.69400000	          0.01879867	          0.09094917	          0.15843897	          0.71944856	          0.05726714	          0.19392360	          0.11487746	          0.49518267	          0.31122809	          0.12785052	          0.02254766	          0.20421000	          0.01025308	          0.30333118	          0.16337481	          0.25768214	
          3.69500000	          0.02089148	          0.08930822	          0.15715294	          0.70436691	          0.05762386	          0.19748458	          0.10814624	          0.48953612	          0.30294291	          0.12733520	          0.02168289	          0.19921426	          0.01013811	          0.30303941	          0.16129662	          0.25696118	
          3.69600000	          0.02299131	          0.08781908	          0.15579943	          0.68847356	          0.05824511	          0.20121574	          0.10166129	          0.48345594	          0.29447022	          0.12669950	          0.02119686	          0.19431938	          0.01016178	          0.30273970	          0.15915689	          0.25616448	
          3.69700000	          0.02508800	          0.08647337	          0.15440017	          0.67183731	          0.05915312	          0.20513037	          0.09542908	          0.47696427	          0.28583528	          0.12594731	          0.02107502	          0.18953360	          0.01031628	          0.30247086	          0.15696574	          0.25528829	
          3.69800000	          0.02717173	          0.08526241	          0.15297617	          0.65452700	          0.06037029	          0.20923673	          0.08945514	          0.47008493	          0.27706460	          0.12508322	          0.02130160	          0.18486577	          0.01059371	          0.30228027	          0.15473459	          0.25432993	
          3.69900000	          0.02923310	          0.08417790	          0.15154567	          0.63661148	          0.06191726	          0.21353991	          0.08374467	          0.46284245	          0.26818588	          0.12411250	          0.02185973	          0.18032487	          0.01098605	          0.30222274	          0.15247502	          0.25328751	
          3.70000000	          0.03126338	          0.08321272	          0.15012356	          0.61815935	          0.06381073	          0.21804617	          0.07830294	          0.45526152	          0.25922748	          0.12304087	          0.02273170	          0.17591930	          0.01148527	          0.30235443	          0.15019795	          0.25215946	
          3.70100000	          0.03325462	          0.08236105	          0.14872142	          0.59923880	          0.06606180	          0.22276743	          0.07313544	          0.44736707	          0.25021755	          0.12187447	          0.02389892	          0.17165614	          0.01208350	          0.30272448	          0.14791331	          0.25094421	
          3.70200000	          0.03519967	          0.08161772	          0.14734821	          0.57991807	          0.06867636	          0.22772133	          0.06824771	          0.43918443	          0.24118331	          0.12061982	          0.02534203	          0.16754117	          0.01277316	          0.30337073	          0.14563014	          0.24964030	
          3.70300000	          0.03709210	          0.08097764	          0.14601167	          0.56026650	          0.07166014	          0.23292637	          0.06364463	          0.43074015	          0.23215061	          0.11928337	          0.02704117	          0.16357989	          0.01354708	          0.30432092	          0.14335684	          0.24824696	
          3.70400000	          0.03892625	          0.08043536	          0.14471983	          0.54035470	          0.07502731	          0.23839707	          0.05932970	          0.42206325	          0.22314379	          0.11787112	          0.02897659	          0.15977846	          0.01439829	          0.30559735	          0.14110160	          0.24676497	
          3.70500000	          0.04069731	          0.07998477	          0.14348072	          0.52025318	          0.07880383	          0.24414357	          0.05530514	          0.41318523	          0.21418600	          0.11638851	          0.03112951	          0.15614326	          0.01531980	          0.30722298	          0.13887289	          0.24519637	
          3.70600000	          0.04240143	          0.07961919	          0.14230109	          0.50003089	          0.08302077	          0.25017415	          0.05157259	          0.40413930	          0.20529961	          0.11484053	          0.03348280	          0.15267951	          0.01630439	          0.30922608	          0.13667949	          0.24354387	
          3.70700000	          0.04403548	          0.07933170	          0.14118562	          0.47975514	          0.08770499	          0.25649523	          0.04813373	          0.39496012	          0.19650614	          0.11323195	          0.03602074	          0.14939052	          0.01734459	          0.31164240	          0.13453039	          0.24181088	
          3.70800000	          0.04559676	          0.07911556	          0.14013732	          0.45949238	          0.09287571	          0.26310868	          0.04498977	          0.38568438	          0.18782573	          0.11156754	          0.03872810	          0.14627801	          0.01843281	          0.31451388	          0.13243485	          0.24000213	
          3.70900000	          0.04708282	          0.07896432	          0.13915791	          0.43930862	          0.09854616	          0.27001024	          0.04214052	          0.37635182	          0.17927718	          0.10985225	          0.04158963	          0.14334268	          0.01956128	          0.31788387	          0.13040210	          0.23812483	
          3.71000000	          0.04849147	          0.07887178	          0.13824835	          0.41926981	          0.10472741	          0.27718961	          0.03958396	          0.36700530	          0.17087823	          0.10809145	          0.04458999	          0.14058413	          0.02072209	          0.32179044	          0.12844067	          0.23619018	
          3.71100000	          0.04982062	          0.07883208	          0.13741027	          0.39944171	          0.11143153	          0.28463057	          0.03731632	          0.35768864	          0.16264546	          0.10629089	          0.04771419	          0.13800058	          0.02190731	          0.32626060	          0.12655813	          0.23421267	
          3.71200000	          0.05106835	          0.07883990	          0.13664797	          0.37988862	          0.11867038	          0.29231153	          0.03533241	          0.34844383	          0.15459406	          0.10445644	          0.05094775	          0.13558850	          0.02310904	          0.33130808	          0.12476112	          0.23220692	
          3.71300000	          0.05223308	          0.07889069	          0.13596999	          0.36067155	          0.12645144	          0.30020751	          0.03362591	          0.33930938	          0.14673809	          0.10259366	          0.05427634	          0.13334259	          0.02431961	          0.33693678	          0.12305489	          0.23018534	
          3.71400000	          0.05331371	          0.07898078	          0.13538900	          0.34184693	          0.13477588	          0.30829226	          0.03218945	          0.33032026	          0.13909118	          0.10070768	          0.05768538	          0.13125625	          0.02553160	          0.34314655	          0.12144309	          0.22815762	
          3.71500000	          0.05430949	          0.07910724	          0.13492060	          0.32346579	          0.14363965	          0.31653858	          0.03101447	          0.32150868	          0.13166678	          0.09880352	          0.06116043	          0.12932206	          0.02673793	          0.34993527	          0.11992793	          0.22613114	
          3.71600000	          0.05521983	          0.07926728	          0.13458119	          0.30557380	          0.15303459	          0.32491725	          0.03009147	          0.31290383	          0.12447788	          0.09688622	          0.06468713	          0.12753217	          0.02793182	          0.35729693	          0.11851067	          0.22411173	
          3.71700000	          0.05604432	          0.07945776	          0.13438539	          0.28821172	          0.16294848	          0.33339595	          0.02941071	          0.30453057	          0.11753669	          0.09496081	          0.06825086	          0.12587855	          0.02910672	          0.36522016	          0.11719198	          0.22210454	
